# xmcd
#
# Track frame offsets: 
#        150
#        21315
#        37411
#        52449
#        66254
#        84852
#        106274
#        120666
#        139352
#        154563
#        171125
#        192095
#        214048
#        233398
#        251398
#        270147
#        291111
#
# Disc length: 4117 seconds
#
# Revision: 1
# Processed by: cddbd v1.5.2PL0 Copyright (c) Steve Scherf et al.
# Submitted via: ExactAudioCopy v0.95b4
#
DISCID=ec101311
DTITLE=Various Artist - 97 Original Hits 90's [CD5)
DYEAR=2009
DGENRE=90's
TTITLE0=Iggy Pop - The Passenger
TTITLE1=Placebo - Every Me Every You
TTITLE2=Supergrass - Pumping On Your Stereo
TTITLE3=Fun Lovin' Criminals - Scooby Snacks
TTITLE4=Terrorvision - Tequila
TTITLE5=Carter USM - Sheriff Fatman
TTITLE6=Jesus Jones - International Bright Young Thing
TTITLE7=Mansun - She Makes My Nose Bleed
TTITLE8=Supernaturals - The Day Before Yesterday's Man
TTITLE9=Dubstar - Anywhere
TTITLE10=Kirsty Maccoll - Walking Down Madison
TTITLE11=Robert Palmer - Mercy Mercy Me
TTITLE12=The Proclaimers - Let's Get Married
TTITLE13=Duran Duran - Come Undone
TTITLE14=Thunder - Low Life In High Places
TTITLE15=Joe Cocker - Now That The Magic Has Gone
TTITLE16=Bryan Ferry - I Put A Spell On You
EXTD=
EXTT0=
EXTT1=
EXTT2=
EXTT3=
EXTT4=
EXTT5=
EXTT6=
EXTT7=
EXTT8=
EXTT9=
EXTT10=
EXTT11=
EXTT12=
EXTT13=
EXTT14=
EXTT15=
EXTT16=
PLAYORDER=
